<svg xmlns="http://www.w3.org/2000/svg" viewBox="0 0 383.46 196.53"><defs><style>.cls-1{fill:#f33;}.cls-2{fill:#fff;}</style></defs><title>pravosvet_logo_на_темный_фон</title><g id="Layer_2" data-name="Layer 2"><g id="Layer_1-2" data-name="Layer 1"><path class="cls-1" d="M230.48,122.19A172.9,172.9,0,0,1,187,177a172.79,172.79,0,0,1-43.54-54.78H128.33A219.57,219.57,0,0,0,187,196.53a219.81,219.81,0,0,0,58.62-74.34Z"/><rect class="cls-1" x="79.01" y="121.53" width="222.1" height="8.62"/><path class="cls-1" d="M37.14,69.21v42H29.46V75.81H7.68v35.4H0v-42Z"/><path class="cls-1" d="M74.91,71a13.83,13.83,0,0,1,6.21,5.16,15.77,15.77,0,0,1,0,15.93,13.76,13.76,0,0,1-6.21,5.19,23.25,23.25,0,0,1-9.51,1.8H55.92v12.12h-7.8v-42H65.4A23.25,23.25,0,0,1,74.91,71ZM72.78,90.33a7.53,7.53,0,0,0,2.64-6.18A7.53,7.53,0,0,0,72.78,78Q70.14,75.81,65,75.81H55.92V92.49H65Q70.14,92.49,72.78,90.33Z"/><path class="cls-1" d="M115.56,101.49h-21l-4.14,9.72h-8l18.9-42H109l19,42h-8.16ZM113,95.37,105.06,77,97.2,95.37Z"/><path class="cls-1" d="M167.28,93.06a11.09,11.09,0,0,1-2,15.09q-4.08,3.06-11.82,3.06H133.56v-42h18.78q7.08,0,11,2.82a9.22,9.22,0,0,1,4,8,10.08,10.08,0,0,1-1.59,5.7,9.94,9.94,0,0,1-4.59,3.66A11.34,11.34,0,0,1,167.28,93.06Zm-26-5.91h10.44a9.42,9.42,0,0,0,5.76-1.5,5.22,5.22,0,0,0,2-4.44,5.3,5.3,0,0,0-2-4.47,9.28,9.28,0,0,0-5.76-1.53H141.24ZM161.52,99q0-6.12-8.28-6.12h-12v12.36h12Q161.52,105.21,161.52,99Z"/><path class="cls-1" d="M185.28,109a20.66,20.66,0,0,1-8.1-7.74,22.31,22.31,0,0,1,0-22.14,20.66,20.66,0,0,1,8.1-7.74,25.43,25.43,0,0,1,23.16,0,20.73,20.73,0,0,1,8.1,7.71,22.42,22.42,0,0,1,0,22.2,20.73,20.73,0,0,1-8.1,7.71,25.43,25.43,0,0,1-23.16,0Zm19.14-5.94a13.67,13.67,0,0,0,5.28-5.28,16,16,0,0,0,0-15.18,13.67,13.67,0,0,0-5.28-5.28,16.06,16.06,0,0,0-15.12,0A13.67,13.67,0,0,0,184,82.62a16,16,0,0,0,0,15.18,13.67,13.67,0,0,0,5.28,5.28,16.06,16.06,0,0,0,15.12,0Z"/><path class="cls-2" d="M235.11,109a20.5,20.5,0,0,1-8-7.71,21.39,21.39,0,0,1-2.91-11.1,21.13,21.13,0,0,1,2.94-11.1,20.71,20.71,0,0,1,8.07-7.71,23.65,23.65,0,0,1,11.49-2.79,24,24,0,0,1,9.42,1.8,19.21,19.21,0,0,1,7.2,5.22l-5,4.74A14.7,14.7,0,0,0,247,75.45a15.73,15.73,0,0,0-7.74,1.89,13.55,13.55,0,0,0-5.34,5.25,16.08,16.08,0,0,0,0,15.24,13.55,13.55,0,0,0,5.34,5.25A15.73,15.73,0,0,0,247,105a14.62,14.62,0,0,0,11.22-5l5,4.8a19.16,19.16,0,0,1-7.23,5.22,24.19,24.19,0,0,1-9.45,1.8A23.65,23.65,0,0,1,235.11,109Z"/><path class="cls-2" d="M303.48,93.06a11.09,11.09,0,0,1-2,15.09q-4.1,3.06-11.82,3.06H269.76v-42h18.78c4.71,0,8.4.94,11,2.82a9.22,9.22,0,0,1,4,8,10.16,10.16,0,0,1-1.59,5.7,10,10,0,0,1-4.59,3.66A11.34,11.34,0,0,1,303.48,93.06Zm-26-5.91h10.43a9.43,9.43,0,0,0,5.77-1.5,5.22,5.22,0,0,0,2-4.44,5.3,5.3,0,0,0-2-4.47,9.29,9.29,0,0,0-5.77-1.53H277.44ZM297.72,99q0-6.12-8.28-6.12h-12v12.36h12Q297.72,105.21,297.72,99Z"/><path class="cls-2" d="M345.11,104.67v6.54h-31.5v-42h30.66v6.54H321.41V86.67h20.28v6.42H321.41v11.58Z"/><path class="cls-2" d="M383.46,75.81H369.54v35.4h-7.75V75.81H347.93v-6.6h35.53Z"/><ellipse class="cls-2" cx="196.86" cy="90.21" rx="9.24" ry="8.79"/><path class="cls-1" d="M109.38,59.37h16.35l-2.9-20.26A97.44,97.44,0,0,1,185.7,16.29h2.49a97.44,97.44,0,0,1,62.87,22.82l-2.9,20.26h16.35c.21-1.38.41-2.77.58-4.16l2.84-22.62-4.66-4.09a116.45,116.45,0,0,0-152.65,0L106,32.59l2.84,22.62C109,56.6,109.17,58,109.38,59.37Z"/></g></g></svg>